<svg xmlns="http://www.w3.org/2000/svg" width="700" height="400">
    <!-- Background -->
    <rect width="700" height="400" fill="#f5f5f5"/>
    <rect x="20" y="20" width="660" height="360" fill="white" stroke="none" rx="12"/>
    
    <!-- Title -->
    <text x="40" y="45" fill="#666" font-family="Arial, sans-serif" font-size="14" font-weight="bold" text-transform="uppercase" letter-spacing="1px">Graph &amp; Interventions</text>
    
    <!-- Graph area (moved up significantly) -->
    <g transform="translate(50, 0)">
        <line x1="375.0" y1="267.5" x2="375.0" y2="222.04545454545456" stroke="#8B4513" stroke-width="3"/>
<polygon points="375.0,222.04545454545456 379.0,230.04545454545456 371.0,230.04545454545456" fill="#8B4513"/>
<line x1="225.0" y1="222.04545454545456" x2="375.0" y2="176.5909090909091" stroke="#8B4513" stroke-width="3"/>
<polygon points="375.0,176.5909090909091 368.5038343456637,182.73906587090596 366.1837751834007,175.08287063543816" fill="#8B4513"/>
<line x1="225.0" y1="131.13636363636363" x2="225.0" y2="85.68181818181819" stroke="#8B4513" stroke-width="3"/>
<polygon points="225.0,85.68181818181819 229.0,93.68181818181819 221.0,93.68181818181819" fill="#8B4513"/>
<line x1="375.0" y1="176.5909090909091" x2="225.0" y2="131.13636363636363" stroke="#8B4513" stroke-width="3"/>
<polygon points="225.0,131.13636363636363 233.81622481659926,129.6283251808927 231.4961656543363,137.2845204163605" fill="#8B4513"/>
<line x1="375.0" y1="176.5909090909091" x2="375.0" y2="131.13636363636363" stroke="#8B4513" stroke-width="3"/>
<polygon points="375.0,131.13636363636363 379.0,139.13636363636363 371.0,139.13636363636363" fill="#8B4513"/>
<line x1="225.0" y1="267.5" x2="225.0" y2="222.04545454545456" stroke="#8B4513" stroke-width="3"/>
<polygon points="225.0,222.04545454545456 229.0,230.04545454545456 221.0,230.04545454545456" fill="#8B4513"/>
<line x1="375.0" y1="222.04545454545456" x2="375.0" y2="176.5909090909091" stroke="#8B4513" stroke-width="3"/>
<polygon points="375.0,176.5909090909091 379.0,184.5909090909091 371.0,184.5909090909091" fill="#8B4513"/>
<line x1="375.0" y1="131.13636363636363" x2="375.0" y2="85.68181818181819" stroke="#8B4513" stroke-width="3"/>
<polygon points="375.0,85.68181818181819 379.0,93.68181818181819 371.0,93.68181818181819" fill="#8B4513"/>
        <rect x="175.0" y="250.0" width="100" height="35" fill="#e8e8e8" stroke="#999" stroke-width="2" rx="8"/>
<text x="225.0" y="272.0" text-anchor="middle" fill="#333" font-family="Arial, sans-serif" font-size="12" font-weight="bold">seed sample</text>
<rect x="160.0" y="245.0" width="30" height="16" fill="white" stroke="#ccc" stroke-width="1" rx="4"/>
<text x="175.0" y="257.0" text-anchor="middle" fill="#8B4513" font-family="Arial, sans-serif" font-size="10" font-weight="bold">100%</text>
<rect x="325.0" y="250.0" width="100" height="35" fill="#e8e8e8" stroke="#999" stroke-width="2" rx="8"/>
<text x="375.0" y="272.0" text-anchor="middle" fill="#333" font-family="Arial, sans-serif" font-size="12" font-weight="bold">alias variant</text>
<rect x="310.0" y="245.0" width="30" height="16" fill="white" stroke="#ccc" stroke-width="1" rx="4"/>
<text x="325.0" y="257.0" text-anchor="middle" fill="#8B4513" font-family="Arial, sans-serif" font-size="10" font-weight="bold">100%</text>
<rect x="175.0" y="204.54545454545456" width="100" height="35" fill="#e8e8e8" stroke="#999" stroke-width="2" rx="8"/>
<text x="225.0" y="226.54545454545456" text-anchor="middle" fill="#333" font-family="Arial, sans-serif" font-size="12" font-weight="bold">late carrier
seed</text>
<rect x="160.0" y="199.54545454545456" width="30" height="16" fill="white" stroke="#ccc" stroke-width="1" rx="4"/>
<text x="175.0" y="211.54545454545456" text-anchor="middle" fill="#8B4513" font-family="Arial, sans-serif" font-size="10" font-weight="bold">82%</text>
<rect x="325.0" y="204.54545454545456" width="100" height="35" fill="#e8e8e8" stroke="#999" stroke-width="2" rx="8"/>
<text x="375.0" y="226.54545454545456" text-anchor="middle" fill="#333" font-family="Arial, sans-serif" font-size="12" font-weight="bold">late carrier
variant</text>
<rect x="310.0" y="199.54545454545456" width="30" height="16" fill="white" stroke="#ccc" stroke-width="1" rx="4"/>
<text x="325.0" y="211.54545454545456" text-anchor="middle" fill="#8B4513" font-family="Arial, sans-serif" font-size="10" font-weight="bold">79%</text>
<rect x="325.0" y="159.0909090909091" width="100" height="35" fill="#e8e8e8" stroke="#999" stroke-width="2" rx="8"/>
<text x="375.0" y="181.0909090909091" text-anchor="middle" fill="#333" font-family="Arial, sans-serif" font-size="12" font-weight="bold">resid_pre13
preserved</text>
<rect x="310.0" y="154.0909090909091" width="30" height="16" fill="white" stroke="#ccc" stroke-width="1" rx="4"/>
<text x="325.0" y="166.0909090909091" text-anchor="middle" fill="#8B4513" font-family="Arial, sans-serif" font-size="10" font-weight="bold">80%</text>
<rect x="175.0" y="113.63636363636363" width="100" height="35" fill="#e8e8e8" stroke="#999" stroke-width="2" rx="8"/>
<text x="225.0" y="135.63636363636363" text-anchor="middle" fill="#333" font-family="Arial, sans-serif" font-size="12" font-weight="bold">resid_pre31
normal use</text>
<rect x="160.0" y="108.63636363636363" width="30" height="16" fill="white" stroke="#ccc" stroke-width="1" rx="4"/>
<text x="175.0" y="120.63636363636363" text-anchor="middle" fill="#8B4513" font-family="Arial, sans-serif" font-size="10" font-weight="bold">74%</text>
<rect x="325.0" y="113.63636363636363" width="100" height="35" fill="#e8e8e8" stroke="#999" stroke-width="2" rx="8"/>
<text x="375.0" y="135.63636363636363" text-anchor="middle" fill="#333" font-family="Arial, sans-serif" font-size="12" font-weight="bold">resid_pre31
redistributed use</text>
<rect x="310.0" y="108.63636363636363" width="30" height="16" fill="white" stroke="#ccc" stroke-width="1" rx="4"/>
<text x="325.0" y="120.63636363636363" text-anchor="middle" fill="#8B4513" font-family="Arial, sans-serif" font-size="10" font-weight="bold">31%</text>
<rect x="175.0" y="68.18181818181819" width="100" height="35" fill="#e8e8e8" stroke="#999" stroke-width="2" rx="8"/>
<text x="225.0" y="90.18181818181819" text-anchor="middle" fill="#333" font-family="Arial, sans-serif" font-size="12" font-weight="bold">BLOCK on seed</text>
<rect x="160.0" y="63.18181818181819" width="30" height="16" fill="white" stroke="#ccc" stroke-width="1" rx="4"/>
<text x="175.0" y="75.18181818181819" text-anchor="middle" fill="#8B4513" font-family="Arial, sans-serif" font-size="10" font-weight="bold">81%</text>
<rect x="325.0" y="68.18181818181819" width="100" height="35" fill="#e8e8e8" stroke="#999" stroke-width="2" rx="8"/>
<text x="375.0" y="90.18181818181819" text-anchor="middle" fill="#333" font-family="Arial, sans-serif" font-size="12" font-weight="bold">ALLOW on variant</text>
<rect x="310.0" y="63.18181818181819" width="30" height="16" fill="white" stroke="#ccc" stroke-width="1" rx="4"/>
<text x="325.0" y="75.18181818181819" text-anchor="middle" fill="#8B4513" font-family="Arial, sans-serif" font-size="10" font-weight="bold">67%</text>
    </g>
    
    <!-- Prompt section -->
    <line x1="40" y1="290" x2="660" y2="290" stroke="#ddd" stroke-width="1"/>
    <text x="40" y="310" fill="#666" font-family="Arial, sans-serif" font-size="12" font-weight="bold" text-transform="uppercase" letter-spacing="0.5px">Prompt</text>
    
    <!-- Prompt text (GitHub-compatible) -->
    <text x="40" y="325" fill="#333" font-family="Arial, sans-serif" font-size="12">Evasion interpretation: preserved late evidence, redistributed downstream</text>
<text x="40" y="340" fill="#333" font-family="Arial, sans-serif" font-size="12">dependence</text>
    
    <!-- Top outputs section -->
    <text x="40" y="350" fill="#666" font-family="Arial, sans-serif" font-size="10" font-weight="bold" text-transform="uppercase" letter-spacing="0.5px">Top Outputs</text>
    
    <!-- Output items -->
    <g transform="translate(0, 5)">
        <rect x="40" y="350" width="126" height="20" fill="#e8e8e8" stroke="none" rx="6"/>
<text x="45" y="364" fill="#333" font-family="Arial, sans-serif" font-size="11" font-weight="bold">BLOCK(seed) <tspan fill="#555" font-size="10">76%</tspan></text>
<rect x="176" y="350" width="150" height="20" fill="#e8e8e8" stroke="none" rx="6"/>
<text x="181" y="364" fill="#333" font-family="Arial, sans-serif" font-size="11" font-weight="bold">ALLOW(variant) <tspan fill="#555" font-size="10">58%</tspan></text>
<rect x="336" y="350" width="150" height="20" fill="#e8e8e8" stroke="none" rx="6"/>
<text x="341" y="364" fill="#333" font-family="Arial, sans-serif" font-size="11" font-weight="bold">BLOCK(variant) <tspan fill="#555" font-size="10">21%</tspan></text>
    </g>
</svg>