<svg xmlns="http://www.w3.org/2000/svg" width="700" height="400">
    <!-- Background -->
    <rect width="700" height="400" fill="#f5f5f5"/>
    <rect x="20" y="20" width="660" height="360" fill="white" stroke="none" rx="12"/>
    
    <!-- Title -->
    <text x="40" y="45" fill="#666" font-family="Arial, sans-serif" font-size="14" font-weight="bold" text-transform="uppercase" letter-spacing="1px">Graph &amp; Interventions</text>
    
    <!-- Graph area (moved up significantly) -->
    <g transform="translate(50, 0)">
        <line x1="300.0" y1="222.04545454545456" x2="150.0" y2="176.5909090909091" stroke="#8B4513" stroke-width="3"/>
<polygon points="150.0,176.5909090909091 158.81622481659926,175.08287063543816 156.4961656543363,182.73906587090596" fill="#8B4513"/>
<line x1="300.0" y1="267.5" x2="300.0" y2="222.04545454545456" stroke="#8B4513" stroke-width="3"/>
<polygon points="300.0,222.04545454545456 304.0,230.04545454545456 296.0,230.04545454545456" fill="#8B4513"/>
<line x1="150.0" y1="176.5909090909091" x2="300.0" y2="131.13636363636363" stroke="#8B4513" stroke-width="3"/>
<polygon points="300.0,131.13636363636363 293.5038343456637,137.2845204163605 291.1837751834007,129.6283251808927" fill="#8B4513"/>
<line x1="300.0" y1="176.5909090909091" x2="300.0" y2="131.13636363636363" stroke="#8B4513" stroke-width="3"/>
<polygon points="300.0,131.13636363636363 304.0,139.13636363636363 296.0,139.13636363636363" fill="#8B4513"/>
<line x1="450.0" y1="176.5909090909091" x2="300.0" y2="131.13636363636363" stroke="#8B4513" stroke-width="3"/>
<polygon points="300.0,131.13636363636363 308.8162248165993,129.6283251808927 306.4961656543363,137.2845204163605" fill="#8B4513"/>
<line x1="300.0" y1="131.13636363636363" x2="300.0" y2="85.68181818181819" stroke="#8B4513" stroke-width="3"/>
<polygon points="300.0,85.68181818181819 304.0,93.68181818181819 296.0,93.68181818181819" fill="#8B4513"/>
        <rect x="250.0" y="250.0" width="100" height="35" fill="#e8e8e8" stroke="#999" stroke-width="2" rx="8"/>
<text x="300.0" y="272.0" text-anchor="middle" fill="#333" font-family="Arial, sans-serif" font-size="12" font-weight="bold">Shared suspicious
indicator tokens</text>
<rect x="235.0" y="245.0" width="30" height="16" fill="white" stroke="#ccc" stroke-width="1" rx="4"/>
<text x="250.0" y="257.0" text-anchor="middle" fill="#8B4513" font-family="Arial, sans-serif" font-size="10" font-weight="bold">96%</text>
<rect x="250.0" y="204.54545454545456" width="100" height="35" fill="#e8e8e8" stroke="#999" stroke-width="2" rx="8"/>
<text x="300.0" y="226.54545454545456" text-anchor="middle" fill="#333" font-family="Arial, sans-serif" font-size="12" font-weight="bold">Clean upstream head
L0H11</text>
<rect x="235.0" y="199.54545454545456" width="30" height="16" fill="white" stroke="#ccc" stroke-width="1" rx="4"/>
<text x="250.0" y="211.54545454545456" text-anchor="middle" fill="#8B4513" font-family="Arial, sans-serif" font-size="10" font-weight="bold">90%</text>
<rect x="100.0" y="159.0909090909091" width="100" height="35" fill="#e8e8e8" stroke="#999" stroke-width="2" rx="8"/>
<text x="150.0" y="181.0909090909091" text-anchor="middle" fill="#333" font-family="Arial, sans-serif" font-size="12" font-weight="bold">Minimal direct branch
L12H15/H5/H4</text>
<rect x="85.0" y="154.0909090909091" width="30" height="16" fill="white" stroke="#ccc" stroke-width="1" rx="4"/>
<text x="100.0" y="166.0909090909091" text-anchor="middle" fill="#8B4513" font-family="Arial, sans-serif" font-size="10" font-weight="bold">87%</text>
<rect x="250.0" y="159.0909090909091" width="100" height="35" fill="#e8e8e8" stroke="#999" stroke-width="2" rx="8"/>
<text x="300.0" y="181.0909090909091" text-anchor="middle" fill="#333" font-family="Arial, sans-serif" font-size="12" font-weight="bold">Stronger sufficiency helper
L12H28</text>
<rect x="235.0" y="154.0909090909091" width="30" height="16" fill="white" stroke="#ccc" stroke-width="1" rx="4"/>
<text x="250.0" y="166.0909090909091" text-anchor="middle" fill="#8B4513" font-family="Arial, sans-serif" font-size="10" font-weight="bold">70%</text>
<rect x="400.0" y="159.0909090909091" width="100" height="35" fill="#e8e8e8" stroke="#999" stroke-width="2" rx="8"/>
<text x="450.0" y="181.0909090909091" text-anchor="middle" fill="#333" font-family="Arial, sans-serif" font-size="12" font-weight="bold">Auxiliary family-sensitive
helper L12H2</text>
<rect x="385.0" y="154.0909090909091" width="30" height="16" fill="white" stroke="#ccc" stroke-width="1" rx="4"/>
<text x="400.0" y="166.0909090909091" text-anchor="middle" fill="#8B4513" font-family="Arial, sans-serif" font-size="10" font-weight="bold">52%</text>
<rect x="250.0" y="113.63636363636363" width="100" height="35" fill="#e8e8e8" stroke="#999" stroke-width="2" rx="8"/>
<text x="300.0" y="135.63636363636363" text-anchor="middle" fill="#333" font-family="Arial, sans-serif" font-size="12" font-weight="bold">Late malicious-evidence
write at resid_pre13</text>
<rect x="235.0" y="108.63636363636363" width="30" height="16" fill="white" stroke="#ccc" stroke-width="1" rx="4"/>
<text x="250.0" y="120.63636363636363" text-anchor="middle" fill="#8B4513" font-family="Arial, sans-serif" font-size="10" font-weight="bold">83%</text>
<rect x="250.0" y="68.18181818181819" width="100" height="35" fill="#e8e8e8" stroke="#999" stroke-width="2" rx="8"/>
<text x="300.0" y="90.18181818181819" text-anchor="middle" fill="#333" font-family="Arial, sans-serif" font-size="12" font-weight="bold">Final BLOCK preference</text>
<rect x="235.0" y="63.18181818181819" width="30" height="16" fill="white" stroke="#ccc" stroke-width="1" rx="4"/>
<text x="250.0" y="75.18181818181819" text-anchor="middle" fill="#8B4513" font-family="Arial, sans-serif" font-size="10" font-weight="bold">93%</text>
    </g>
    
    <!-- Prompt section -->
    <line x1="40" y1="290" x2="660" y2="290" stroke="#ddd" stroke-width="1"/>
    <text x="40" y="310" fill="#666" font-family="Arial, sans-serif" font-size="12" font-weight="bold" text-transform="uppercase" letter-spacing="0.5px">Prompt</text>
    
    <!-- Prompt text (GitHub-compatible) -->
    <text x="40" y="325" fill="#333" font-family="Arial, sans-serif" font-size="12">GitHub-style CLT-Forge route figure: validated 96-pair claim hierarchy</text>
    
    <!-- Top outputs section -->
    <text x="40" y="350" fill="#666" font-family="Arial, sans-serif" font-size="10" font-weight="bold" text-transform="uppercase" letter-spacing="0.5px">Top Outputs</text>
    
    <!-- Output items -->
    <g transform="translate(0, 5)">
        <rect x="40" y="350" width="78" height="20" fill="#e8e8e8" stroke="none" rx="6"/>
<text x="45" y="364" fill="#333" font-family="Arial, sans-serif" font-size="11" font-weight="bold">BLOCK <tspan fill="#555" font-size="10">82%</tspan></text>
<rect x="128" y="350" width="78" height="20" fill="#e8e8e8" stroke="none" rx="6"/>
<text x="133" y="364" fill="#333" font-family="Arial, sans-serif" font-size="11" font-weight="bold">ALLOW <tspan fill="#555" font-size="10">11%</tspan></text>
<rect x="216" y="350" width="256" height="20" fill="#e8e8e8" stroke="none" rx="6"/>
<text x="221" y="364" fill="#333" font-family="Arial, sans-serif" font-size="11" font-weight="bold">redistribution under evasion <tspan fill="#555" font-size="10">5%</tspan></text>
    </g>
</svg>