<svg xmlns="http://www.w3.org/2000/svg" width="700" height="400">
    <!-- Background -->
    <rect width="700" height="400" fill="#f5f5f5"/>
    <rect x="20" y="20" width="660" height="360" fill="white" stroke="none" rx="12"/>
    
    <!-- Title -->
    <text x="40" y="45" fill="#666" font-family="Arial, sans-serif" font-size="14" font-weight="bold" text-transform="uppercase" letter-spacing="1px">Graph &amp; Interventions</text>
    
    <!-- Graph area (moved up significantly) -->
    <g transform="translate(50, 0)">
        <line x1="225.0" y1="267.5" x2="225.0" y2="196.07142857142856" stroke="#8B4513" stroke-width="3"/>
<polygon points="225.0,196.07142857142856 229.0,204.07142857142856 221.0,204.07142857142856" fill="#8B4513"/>
<line x1="225.0" y1="267.5" x2="375.0" y2="196.07142857142856" stroke="#8B4513" stroke-width="3"/>
<polygon points="375.0,196.07142857142856 369.49685017097795,203.12233928986305 366.0573815278392,195.89945513927162" fill="#8B4513"/>
<line x1="375.0" y1="196.07142857142856" x2="300.0" y2="124.64285714285714" stroke="#8B4513" stroke-width="3"/>
<polygon points="300.0,124.64285714285714 308.55172413793105,127.26354679802955 303.0344827586207,133.05665024630542" fill="#8B4513"/>
<line x1="525.0" y1="267.5" x2="225.0" y2="196.07142857142856" stroke="#8B4513" stroke-width="3"/>
<polygon points="225.0,196.07142857142856 233.7089318267071,194.03316793113538 231.85596760825877,201.81561764861834" fill="#8B4513"/>
<line x1="525.0" y1="267.5" x2="375.0" y2="196.07142857142856" stroke="#8B4513" stroke-width="3"/>
<polygon points="375.0,196.07142857142856 383.9426184721608,195.89945513927162 380.50314982902205,203.12233928986305" fill="#8B4513"/>
<line x1="75.0" y1="267.5" x2="225.0" y2="196.07142857142856" stroke="#8B4513" stroke-width="3"/>
<polygon points="225.0,196.07142857142856 219.49685017097795,203.12233928986305 216.05738152783914,195.89945513927162" fill="#8B4513"/>
<line x1="75.0" y1="267.5" x2="375.0" y2="196.07142857142856" stroke="#8B4513" stroke-width="3"/>
<polygon points="375.0,196.07142857142856 368.1440323917412,201.81561764861834 366.2910681732929,194.03316793113538" fill="#8B4513"/>
<line x1="225.0" y1="196.07142857142856" x2="300.0" y2="124.64285714285714" stroke="#8B4513" stroke-width="3"/>
<polygon points="300.0,124.64285714285714 296.9655172413793,133.05665024630542 291.44827586206895,127.26354679802955" fill="#8B4513"/>
<line x1="375.0" y1="267.5" x2="225.0" y2="196.07142857142856" stroke="#8B4513" stroke-width="3"/>
<polygon points="225.0,196.07142857142856 233.94261847216086,195.89945513927162 230.50314982902205,203.12233928986305" fill="#8B4513"/>
<line x1="375.0" y1="267.5" x2="375.0" y2="196.07142857142856" stroke="#8B4513" stroke-width="3"/>
<polygon points="375.0,196.07142857142856 379.0,204.07142857142856 371.0,204.07142857142856" fill="#8B4513"/>
        <rect x="25.0" y="250.0" width="100" height="35" fill="#e8e8e8" stroke="#999" stroke-width="2" rx="8"/>
<text x="75.0" y="272.0" text-anchor="middle" fill="#333" font-family="Arial, sans-serif" font-size="12" font-weight="bold">minimal branch</text>
<rect x="10.0" y="245.0" width="30" height="16" fill="white" stroke="#ccc" stroke-width="1" rx="4"/>
<text x="25.0" y="257.0" text-anchor="middle" fill="#8B4513" font-family="Arial, sans-serif" font-size="10" font-weight="bold">78%</text>
<rect x="175.0" y="250.0" width="100" height="35" fill="#e8e8e8" stroke="#999" stroke-width="2" rx="8"/>
<text x="225.0" y="272.0" text-anchor="middle" fill="#333" font-family="Arial, sans-serif" font-size="12" font-weight="bold">top-5 bundle</text>
<rect x="160.0" y="245.0" width="30" height="16" fill="white" stroke="#ccc" stroke-width="1" rx="4"/>
<text x="175.0" y="257.0" text-anchor="middle" fill="#8B4513" font-family="Arial, sans-serif" font-size="10" font-weight="bold">81%</text>
<rect x="325.0" y="250.0" width="100" height="35" fill="#e8e8e8" stroke="#999" stroke-width="2" rx="8"/>
<text x="375.0" y="272.0" text-anchor="middle" fill="#333" font-family="Arial, sans-serif" font-size="12" font-weight="bold">H2-free carrier</text>
<rect x="310.0" y="245.0" width="30" height="16" fill="white" stroke="#ccc" stroke-width="1" rx="4"/>
<text x="325.0" y="257.0" text-anchor="middle" fill="#8B4513" font-family="Arial, sans-serif" font-size="10" font-weight="bold">86%</text>
<rect x="475.0" y="250.0" width="100" height="35" fill="#e8e8e8" stroke="#999" stroke-width="2" rx="8"/>
<text x="525.0" y="272.0" text-anchor="middle" fill="#333" font-family="Arial, sans-serif" font-size="12" font-weight="bold">H28-free bundle</text>
<rect x="460.0" y="245.0" width="30" height="16" fill="white" stroke="#ccc" stroke-width="1" rx="4"/>
<text x="475.0" y="257.0" text-anchor="middle" fill="#8B4513" font-family="Arial, sans-serif" font-size="10" font-weight="bold">61%</text>
<rect x="175.0" y="178.57142857142856" width="100" height="35" fill="#e8e8e8" stroke="#999" stroke-width="2" rx="8"/>
<text x="225.0" y="200.57142857142856" text-anchor="middle" fill="#333" font-family="Arial, sans-serif" font-size="12" font-weight="bold">patching
stronger is lower</text>
<rect x="160.0" y="173.57142857142856" width="30" height="16" fill="white" stroke="#ccc" stroke-width="1" rx="4"/>
<text x="175.0" y="185.57142857142856" text-anchor="middle" fill="#8B4513" font-family="Arial, sans-serif" font-size="10" font-weight="bold">90%</text>
<rect x="325.0" y="178.57142857142856" width="100" height="35" fill="#e8e8e8" stroke="#999" stroke-width="2" rx="8"/>
<text x="375.0" y="200.57142857142856" text-anchor="middle" fill="#333" font-family="Arial, sans-serif" font-size="12" font-weight="bold">ablation
necessity</text>
<rect x="310.0" y="173.57142857142856" width="30" height="16" fill="white" stroke="#ccc" stroke-width="1" rx="4"/>
<text x="325.0" y="185.57142857142856" text-anchor="middle" fill="#8B4513" font-family="Arial, sans-serif" font-size="10" font-weight="bold">66%</text>
<rect x="250.0" y="107.14285714285714" width="100" height="35" fill="#e8e8e8" stroke="#999" stroke-width="2" rx="8"/>
<text x="300.0" y="129.14285714285714" text-anchor="middle" fill="#333" font-family="Arial, sans-serif" font-size="12" font-weight="bold">route ranking</text>
<rect x="235.0" y="102.14285714285714" width="30" height="16" fill="white" stroke="#ccc" stroke-width="1" rx="4"/>
<text x="250.0" y="114.14285714285714" text-anchor="middle" fill="#8B4513" font-family="Arial, sans-serif" font-size="10" font-weight="bold">88%</text>
    </g>
    
    <!-- Prompt section -->
    <line x1="40" y1="290" x2="660" y2="290" stroke="#ddd" stroke-width="1"/>
    <text x="40" y="310" fill="#666" font-family="Arial, sans-serif" font-size="12" font-weight="bold" text-transform="uppercase" letter-spacing="0.5px">Prompt</text>
    
    <!-- Prompt text (GitHub-compatible) -->
    <text x="40" y="325" fill="#333" font-family="Arial, sans-serif" font-size="12">96-pair route comparison: minimal branch vs late-carrier variants</text>
    
    <!-- Top outputs section -->
    <text x="40" y="350" fill="#666" font-family="Arial, sans-serif" font-size="10" font-weight="bold" text-transform="uppercase" letter-spacing="0.5px">Top Outputs</text>
    
    <!-- Output items -->
    <g transform="translate(0, 5)">
        <rect x="40" y="350" width="134" height="20" fill="#e8e8e8" stroke="none" rx="6"/>
<text x="45" y="364" fill="#333" font-family="Arial, sans-serif" font-size="11" font-weight="bold">H2-free best <tspan fill="#555" font-size="10">63%</tspan></text>
<rect x="184" y="350" width="118" height="20" fill="#e8e8e8" stroke="none" rx="6"/>
<text x="189" y="364" fill="#333" font-family="Arial, sans-serif" font-size="11" font-weight="bold">top-5 next <tspan fill="#555" font-size="10">19%</tspan></text>
<rect x="312" y="350" width="94" height="20" fill="#e8e8e8" stroke="none" rx="6"/>
<text x="317" y="364" fill="#333" font-family="Arial, sans-serif" font-size="11" font-weight="bold">minimal <tspan fill="#555" font-size="10">12%</tspan></text>
    </g>
</svg>