<svg xmlns="http://www.w3.org/2000/svg" width="700" height="400">
    <!-- Background -->
    <rect width="700" height="400" fill="#f5f5f5"/>
    <rect x="20" y="20" width="660" height="360" fill="white" stroke="none" rx="12"/>
    
    <!-- Title -->
    <text x="40" y="45" fill="#666" font-family="Arial, sans-serif" font-size="14" font-weight="bold" text-transform="uppercase" letter-spacing="1px">Graph &amp; Interventions</text>
    
    <!-- Graph area (moved up significantly) -->
    <g transform="translate(50, 0)">
        <line x1="525.0" y1="211.94444444444446" x2="300.0" y2="156.38888888888889" stroke="#8B4513" stroke-width="3"/>
<polygon points="300.0,156.38888888888889 308.72560527008915,154.42323055881386 306.80788982611347,162.18997810691516" fill="#8B4513"/>
<line x1="300.0" y1="267.5" x2="75.0" y2="211.94444444444446" stroke="#8B4513" stroke-width="3"/>
<polygon points="75.0,211.94444444444446 83.7256052700891,209.97878611436943 81.80788982611348,217.74553366247073" fill="#8B4513"/>
<line x1="375.0" y1="211.94444444444446" x2="300.0" y2="156.38888888888889" stroke="#8B4513" stroke-width="3"/>
<polygon points="300.0,156.38888888888889 308.8093677492609,157.9364805205158 304.047547344255,164.36493806727375" fill="#8B4513"/>
<line x1="75.0" y1="211.94444444444446" x2="225.0" y2="211.94444444444446" stroke="#8B4513" stroke-width="3"/>
<polygon points="225.0,211.94444444444446 217.0,215.94444444444446 217.0,207.94444444444446" fill="#8B4513"/>
<line x1="300.0" y1="156.38888888888889" x2="300.0" y2="100.83333333333331" stroke="#8B4513" stroke-width="3"/>
<polygon points="300.0,100.83333333333331 304.0,108.83333333333331 296.0,108.83333333333331" fill="#8B4513"/>
<line x1="225.0" y1="211.94444444444446" x2="300.0" y2="156.38888888888889" stroke="#8B4513" stroke-width="3"/>
<polygon points="300.0,156.38888888888889 295.952452655745,164.36493806727375 291.1906322507391,157.9364805205158" fill="#8B4513"/>
        <rect x="250.0" y="250.0" width="100" height="35" fill="#e8e8e8" stroke="#999" stroke-width="2" rx="8"/>
<text x="300.0" y="272.0" text-anchor="middle" fill="#333" font-family="Arial, sans-serif" font-size="12" font-weight="bold">indicator tokens</text>
<rect x="235.0" y="245.0" width="30" height="16" fill="white" stroke="#ccc" stroke-width="1" rx="4"/>
<text x="250.0" y="257.0" text-anchor="middle" fill="#8B4513" font-family="Arial, sans-serif" font-size="10" font-weight="bold">100%</text>
<rect x="25.0" y="194.44444444444446" width="100" height="35" fill="#e8e8e8" stroke="#999" stroke-width="2" rx="8"/>
<text x="75.0" y="216.44444444444446" text-anchor="middle" fill="#333" font-family="Arial, sans-serif" font-size="12" font-weight="bold">L0H11</text>
<rect x="10.0" y="189.44444444444446" width="30" height="16" fill="white" stroke="#ccc" stroke-width="1" rx="4"/>
<text x="25.0" y="201.44444444444446" text-anchor="middle" fill="#8B4513" font-family="Arial, sans-serif" font-size="10" font-weight="bold">91%</text>
<rect x="175.0" y="194.44444444444446" width="100" height="35" fill="#e8e8e8" stroke="#999" stroke-width="2" rx="8"/>
<text x="225.0" y="216.44444444444446" text-anchor="middle" fill="#333" font-family="Arial, sans-serif" font-size="12" font-weight="bold">L12H15/H5/H4</text>
<rect x="160.0" y="189.44444444444446" width="30" height="16" fill="white" stroke="#ccc" stroke-width="1" rx="4"/>
<text x="175.0" y="201.44444444444446" text-anchor="middle" fill="#8B4513" font-family="Arial, sans-serif" font-size="10" font-weight="bold">88%</text>
<rect x="325.0" y="194.44444444444446" width="100" height="35" fill="#e8e8e8" stroke="#999" stroke-width="2" rx="8"/>
<text x="375.0" y="216.44444444444446" text-anchor="middle" fill="#333" font-family="Arial, sans-serif" font-size="12" font-weight="bold">L12H28</text>
<rect x="310.0" y="189.44444444444446" width="30" height="16" fill="white" stroke="#ccc" stroke-width="1" rx="4"/>
<text x="325.0" y="201.44444444444446" text-anchor="middle" fill="#8B4513" font-family="Arial, sans-serif" font-size="10" font-weight="bold">72%</text>
<rect x="475.0" y="194.44444444444446" width="100" height="35" fill="#e8e8e8" stroke="#999" stroke-width="2" rx="8"/>
<text x="525.0" y="216.44444444444446" text-anchor="middle" fill="#333" font-family="Arial, sans-serif" font-size="12" font-weight="bold">L12H2</text>
<rect x="460.0" y="189.44444444444446" width="30" height="16" fill="white" stroke="#ccc" stroke-width="1" rx="4"/>
<text x="475.0" y="201.44444444444446" text-anchor="middle" fill="#8B4513" font-family="Arial, sans-serif" font-size="10" font-weight="bold">54%</text>
<rect x="250.0" y="138.88888888888889" width="100" height="35" fill="#e8e8e8" stroke="#999" stroke-width="2" rx="8"/>
<text x="300.0" y="160.88888888888889" text-anchor="middle" fill="#333" font-family="Arial, sans-serif" font-size="12" font-weight="bold">resid_pre13
malicious direction</text>
<rect x="235.0" y="133.88888888888889" width="30" height="16" fill="white" stroke="#ccc" stroke-width="1" rx="4"/>
<text x="250.0" y="145.88888888888889" text-anchor="middle" fill="#8B4513" font-family="Arial, sans-serif" font-size="10" font-weight="bold">84%</text>
<rect x="250.0" y="83.33333333333331" width="100" height="35" fill="#e8e8e8" stroke="#999" stroke-width="2" rx="8"/>
<text x="300.0" y="105.33333333333331" text-anchor="middle" fill="#333" font-family="Arial, sans-serif" font-size="12" font-weight="bold">BLOCK logit</text>
<rect x="235.0" y="78.33333333333331" width="30" height="16" fill="white" stroke="#ccc" stroke-width="1" rx="4"/>
<text x="250.0" y="90.33333333333331" text-anchor="middle" fill="#8B4513" font-family="Arial, sans-serif" font-size="10" font-weight="bold">94%</text>
    </g>
    
    <!-- Prompt section -->
    <line x1="40" y1="290" x2="660" y2="290" stroke="#ddd" stroke-width="1"/>
    <text x="40" y="310" fill="#666" font-family="Arial, sans-serif" font-size="12" font-weight="bold" text-transform="uppercase" letter-spacing="0.5px">Prompt</text>
    
    <!-- Prompt text (GitHub-compatible) -->
    <text x="40" y="325" fill="#333" font-family="Arial, sans-serif" font-size="12">PowerShell sample with shared suspicious indicators; validated 96-pair route</text>
<text x="40" y="340" fill="#333" font-family="Arial, sans-serif" font-size="12">summary</text>
    
    <!-- Top outputs section -->
    <text x="40" y="350" fill="#666" font-family="Arial, sans-serif" font-size="10" font-weight="bold" text-transform="uppercase" letter-spacing="0.5px">Top Outputs</text>
    
    <!-- Output items -->
    <g transform="translate(0, 5)">
        <rect x="40" y="350" width="78" height="20" fill="#e8e8e8" stroke="none" rx="6"/>
<text x="45" y="364" fill="#333" font-family="Arial, sans-serif" font-size="11" font-weight="bold">BLOCK <tspan fill="#555" font-size="10">82%</tspan></text>
<rect x="128" y="350" width="78" height="20" fill="#e8e8e8" stroke="none" rx="6"/>
<text x="133" y="364" fill="#333" font-family="Arial, sans-serif" font-size="11" font-weight="bold">ALLOW <tspan fill="#555" font-size="10">11%</tspan></text>
<rect x="216" y="350" width="104" height="20" fill="#e8e8e8" stroke="none" rx="6"/>
<text x="221" y="364" fill="#333" font-family="Arial, sans-serif" font-size="11" font-weight="bold">malicious <tspan fill="#555" font-size="10">4%</tspan></text>
    </g>
</svg>